<?xml version="1.0" standalone="no"?>
<!DOCTYPE svg PUBLIC "-//W3C//DTD SVG 20010904//EN"
 "http://www.w3.org/TR/2001/REC-SVG-20010904/DTD/svg10.dtd">
<svg version="1.0" xmlns="http://www.w3.org/2000/svg"
 width="1291.000000pt" height="2694.000000pt" viewBox="0 0 1291.000000 2694.000000"
 preserveAspectRatio="xMidYMid meet">

<g transform="translate(0.000000,2694.000000) scale(0.100000,-0.100000)"
fill="#000000" stroke="none">
<path d="M2152 22233 l3 -908 908 -3 907 -2 0 910 0 910 -910 0 -910 0 2 -907z
m1563 2 l0 -650 -652 -3 -653 -2 0 648 c0 357 3 652 7 655 3 4 297 6 652 5
l646 -3 0 -650z"/>
<path d="M2676 22604 c-3 -9 -6 -182 -6 -385 l0 -369 390 0 390 0 0 385 0 385
-384 0 c-341 0 -385 -2 -390 -16z"/>
<path d="M4240 23015 l0 -125 255 0 255 0 0 125 0 125 -255 0 -255 0 0 -125z"/>
<path d="M5280 23015 l0 -125 125 0 125 0 0 125 0 125 -125 0 -125 0 0 -125z"/>
<path d="M5800 23015 l0 -125 125 0 125 0 0 125 0 125 -125 0 -125 0 0 -125z"/>
<path d="M6580 23015 l0 -125 125 0 125 0 0 125 0 125 -125 0 -125 0 0 -125z"/>
<path d="M7100 23015 l0 -124 128 -3 127 -3 3 -127 3 -128 259 0 260 0 0 125
0 125 -130 0 -130 0 0 130 0 130 -260 0 -260 0 0 -125z"/>
<path d="M7880 23015 l0 -124 128 -3 127 -3 3 -127 3 -127 127 -3 127 -3 3
-262 2 -263 -260 0 -261 0 3 -125 3 -126 368 1 c202 0 376 0 387 0 20 0 20 7
20 515 l0 515 -130 0 -130 0 0 130 0 130 -260 0 -260 0 0 -125z"/>
<path d="M8920 22235 l0 -905 23 -5 c12 -3 420 -4 907 -3 l885 3 3 908 2 907
-910 0 -910 0 0 -905z m1560 0 l0 -655 -650 0 -650 0 0 655 0 655 650 0 650 0
0 -655z"/>
<path d="M9440 22235 c0 -411 -3 -387 45 -387 8 0 177 0 375 1 l360 1 0 385 0
385 -390 0 -390 0 0 -385z"/>
<path d="M4760 22755 l0 -125 255 0 255 0 0 125 0 125 -255 0 -255 0 0 -125z"/>
<path d="M6320 22755 l0 -125 125 0 125 0 0 125 0 125 -125 0 -125 0 0 -125z"/>
<path d="M6840 22620 l0 -260 -260 0 -260 0 0 -254 0 -255 109 -3 c60 -2 116
-2 124 0 14 3 17 24 19 130 l3 127 130 0 130 0 5 -129 5 -129 109 2 c60 1 117
-1 127 -4 17 -6 19 -18 19 -136 l0 -129 119 0 c83 0 121 4 128 13 6 6 11 64
12 127 2 63 5 117 8 120 2 3 60 6 129 8 l124 4 0 124 0 124 -130 0 -129 0 -3
128 -3 127 -127 3 -128 3 0 27 c-1 15 -1 132 -1 260 l0 232 -129 0 -130 0 0
-260z"/>
<path d="M4240 22365 l0 -255 115 0 c63 0 118 -1 123 -2 4 -2 9 56 12 127 l5
130 128 3 127 3 0 124 0 125 -255 0 -255 0 0 -255z"/>
<path d="M5278 22493 l-3 -128 -128 -3 -128 -3 3 -127 c2 -70 6 -126 11 -124
4 1 117 2 252 2 l245 0 0 255 0 255 -125 0 -124 0 -3 -127z"/>
<path d="M5800 22366 l0 -255 121 -3 c66 -2 123 -1 125 1 2 2 4 118 4 258 l0
253 -125 0 -125 0 0 -254z"/>
<path d="M4758 21973 l-3 -128 -257 -3 -258 -2 -2 -388 -3 -387 -387 -3 -388
-2 0 -130 0 -130 260 0 261 0 -3 -127 -3 -128 -262 -3 -263 -2 0 130 0 130
-125 0 c-112 0 -125 -2 -127 -17 -1 -10 -3 -47 -3 -83 -1 -36 -3 -86 -4 -112
l-1 -48 -124 0 -124 0 -6 -27 c-3 -16 -5 -35 -4 -43 1 -8 0 -54 0 -102 l-2
-88 -390 0 -390 0 2 -517 3 -518 128 -3 127 -3 0 261 0 260 130 0 129 0 3
-127 3 -128 128 -3 127 -3 0 -113 c0 -63 3 -121 6 -130 5 -14 61 -16 525 -16
l519 0 0 -130 0 -130 -389 0 -389 0 -5 -27 c-5 -24 -3 -203 1 -225 1 -5 353
-8 782 -8 l780 0 0 -390 0 -390 -135 0 -135 0 0 130 0 130 -255 0 -255 0 0
-130 0 -130 130 0 130 0 0 -130 0 -129 128 -3 127 -3 3 -127 3 -128 -136 0
-135 0 0 130 0 130 -125 0 -125 0 0 -130 0 -130 -135 0 -135 0 0 130 0 130
130 0 130 0 0 130 0 130 -130 0 -130 0 0 130 0 130 -130 0 -130 0 0 130 0 130
-384 0 c-354 0 -384 -1 -390 -17 -4 -10 -7 -56 -6 -103 1 -47 1 -97 1 -112
l-1 -28 -257 -2 -258 -3 -3 -257 -2 -258 130 0 130 0 0 -130 0 -130 -114 0
c-63 0 -121 -3 -130 -6 -13 -5 -16 -26 -16 -130 l0 -124 130 0 130 0 0 -130 0
-130 130 0 130 0 0 260 0 260 393 -2 392 -3 3 -127 3 -128 -124 0 c-88 0 -127
-4 -133 -12 -8 -11 -10 -110 -5 -220 l1 -28 255 0 255 0 0 130 0 130 263 -2
262 -3 3 -127 3 -128 124 0 125 0 0 130 0 130 390 0 390 0 0 130 0 130 130 0
129 0 3 128 3 127 133 3 132 3 0 -131 0 -130 -130 0 -130 0 0 -130 0 -130 130
0 130 0 -2 -392 -3 -393 -130 0 -130 0 -3 128 -3 127 -254 0 -255 0 0 -125 0
-124 128 -3 127 -3 3 -127 3 -127 127 -3 127 -3 3 -127 3 -127 127 -3 127 -3
0 -260 0 -260 -127 -3 -128 -3 0 -124 0 -124 128 -3 127 -3 3 -127 3 -128 124
0 124 0 3 128 3 127 128 3 127 3 0 124 0 124 -127 3 -128 3 0 130 0 130 130 0
130 0 3 -127 3 -128 253 0 c139 0 255 2 257 4 2 2 3 59 1 125 l-3 120 -127 3
-127 3 -3 127 -3 127 -127 3 -127 3 -3 127 -3 127 -127 3 -127 3 0 520 0 520
133 3 132 3 0 -261 0 -260 130 0 130 0 0 -130 0 -130 125 0 125 0 2 258 3 257
260 5 260 5 3 128 3 127 129 0 130 0 0 -390 0 -390 130 0 131 0 -3 -132 -3
-133 -127 -3 -128 -3 0 131 0 130 -130 0 -130 0 0 -255 0 -255 130 0 130 0 0
-130 0 -130 130 0 130 0 0 130 0 130 260 0 260 0 0 -390 0 -390 260 0 260 0 0
125 0 125 -130 0 -130 0 0 135 0 135 130 0 130 0 0 -130 0 -130 130 0 130 0 0
130 0 130 130 0 130 0 0 -260 0 -260 130 0 130 0 0 130 0 130 390 0 390 0 0
130 0 130 130 0 130 0 0 125 0 125 -260 0 -260 0 0 -130 0 -130 -130 0 -130 0
0 130 0 130 -130 0 -130 0 0 135 0 135 260 0 260 0 0 125 0 125 -130 0 -130 0
0 130 0 129 -127 3 -128 3 -3 128 -3 127 -37 1 c-20 0 -77 1 -127 2 l-90 2 -3
133 -3 132 131 0 130 0 0 -130 0 -130 130 0 130 0 0 130 0 130 130 0 131 0 -3
128 -3 127 -127 3 -128 3 0 130 0 130 -127 -3 -128 -3 -3 -127 -3 -128 -129 0
-130 0 -2 388 -3 387 -127 3 -128 3 0 -261 0 -260 -130 0 -130 0 -2 258 -3
257 -127 3 -128 3 0 519 0 520 130 0 130 0 0 -260 0 -260 130 0 130 0 0 -130
0 -130 130 0 130 0 0 130 0 130 130 0 130 0 0 -130 0 -130 130 0 130 0 0 910
0 910 130 0 129 0 3 -127 3 -128 128 -3 127 -3 0 -129 0 -130 -130 0 -130 0 0
-520 0 -520 130 0 130 0 0 390 0 390 130 0 130 0 0 780 0 780 -130 0 -130 0 0
-260 0 -260 -260 0 -260 0 0 -130 0 -130 -130 0 -130 0 0 130 0 130 -130 0
-130 0 0 260 0 260 -390 0 -390 0 0 260 0 260 -130 0 -130 0 0 -260 0 -260
-260 0 -260 0 0 130 0 130 -130 0 -130 0 0 -130 0 -130 -130 0 -130 0 0 -130
0 -130 130 0 130 0 0 -130 0 -130 -260 0 -260 0 0 244 c0 134 -3 251 -6 260
-5 13 -26 16 -130 16 l-124 0 0 -130 0 -130 -130 0 -130 0 0 -130 0 -130 130
0 130 0 0 -433 0 -433 36 -17 c42 -21 136 -88 182 -130 17 -17 33 -27 34 -21
2 12 5 79 7 177 l1 77 130 0 130 0 0 -130 0 -130 130 0 130 0 0 -390 0 -390
-130 0 -130 0 0 -260 0 -260 130 0 130 0 0 -130 0 -130 -130 0 -130 0 0 -130
0 -130 130 0 130 0 0 -130 0 -130 -257 -2 -258 -3 -3 -127 -3 -128 -57 -1
c-31 -1 -91 -1 -132 -1 l-75 1 -2 120 c-1 66 -4 125 -8 131 -4 7 -88 10 -258
10 l-252 -1 0 128 0 128 390 5 390 5 0 125 0 125 -133 5 c-72 3 -132 8 -132
13 0 4 0 20 0 36 l0 30 -60 -24 c-88 -34 -152 -46 -285 -52 -205 -9 -355 29
-522 133 -78 48 -212 174 -266 250 -48 66 -115 215 -136 299 l-19 80 -1 -382
-1 -383 -130 0 -130 0 0 -130 0 -130 -135 0 -135 0 0 130 0 130 130 0 130 0 0
130 0 130 -130 0 -130 0 0 390 0 390 135 0 135 0 0 -130 0 -130 128 0 127 0
-2 128 c0 70 -1 187 -2 260 l-1 132 -260 0 -260 0 0 260 0 260 -125 0 -125 0
0 -390 0 -390 -135 0 -135 0 0 130 0 130 -130 0 -130 0 0 260 0 260 -125 0
-125 0 0 -130 0 -130 -135 0 -135 0 0 130 0 130 -125 0 -124 0 -3 -127 -3
-128 -132 -3 -133 -3 0 131 0 130 130 0 130 0 0 260 0 260 265 0 265 0 0 -130
0 -130 125 0 125 0 0 260 0 260 260 0 260 0 0 130 0 130 -130 0 -130 0 0 390
0 390 135 0 135 0 0 -124 c0 -93 3 -125 13 -129 7 -3 64 -6 125 -6 l112 -1 0
390 0 390 -125 0 -124 0 -3 -127z m3642 -1433 l0 -260 260 0 260 0 0 -130 0
-130 -260 0 -260 0 0 -130 0 -130 -130 0 -130 0 0 -260 0 -260 130 0 130 0 0
-260 0 -260 -130 0 -129 0 -3 128 -3 127 -127 3 -128 3 -2 257 -3 257 -127 3
-128 3 0 129 0 130 260 0 260 0 0 130 0 130 -130 0 -130 0 0 130 0 130 -130 0
-130 0 0 130 0 129 128 3 127 3 3 128 3 127 259 0 260 0 0 -260z m1042 -387
l3 -128 128 -3 127 -3 0 -129 0 -130 -130 0 -130 0 0 -260 0 -260 -130 0 -130
0 0 130 0 130 -260 0 -260 0 0 130 0 130 390 0 391 0 -3 128 -3 127 -127 3
-128 3 0 129 0 130 130 0 129 0 3 -127z m-6511 -155 c2 -13 3 -71 1 -130 l-3
-108 -130 0 -129 0 0 130 0 130 129 0 c126 0 129 -1 132 -22z m6509 -1148 l0
-130 -130 0 -130 0 0 130 0 130 130 0 130 0 0 -130z m-1040 -780 l0 -390 -130
0 -130 0 -2 258 -3 257 -257 3 -258 2 0 130 0 130 390 0 390 0 0 -390z m-5470
16 c0 -63 3 -121 6 -130 5 -13 26 -16 130 -16 68 0 124 -1 124 -2 6 -39 11
-215 6 -233 l-6 -25 -260 0 -260 0 0 260 0 260 130 0 130 0 0 -114z m5470
-925 l0 -259 -27 -6 c-16 -2 -66 -4 -113 -2 -128 4 -119 14 -122 -133 l-3
-126 -127 -3 -128 -3 0 136 0 135 130 0 130 0 0 124 c0 104 -3 125 -16 130 -9
3 -67 6 -130 6 l-114 0 0 130 0 130 260 0 260 0 0 -259z m518 -133 l-3 -133
-125 1 -125 0 -3 132 -3 132 131 0 131 0 -3 -132z m522 -783 l0 -395 -390 0
-390 0 0 395 0 395 390 0 390 0 0 -395z m-1042 3 l-3 -133 -127 -3 -128 -3 0
136 0 135 130 0 131 0 -3 -132z"/>
<path d="M8140 20150 l0 -131 128 3 127 3 3 128 3 127 -131 0 -130 0 0 -130z"/>
<path d="M8920 16245 l0 -125 130 0 130 0 0 125 0 125 -130 0 -130 0 0 -125z"/>
<path d="M5540 21975 c0 -76 4 -125 10 -125 6 -1 57 -1 115 -1 58 0 110 0 115
1 6 0 10 49 10 125 l0 125 -125 0 -125 0 0 -125z"/>
<path d="M5800 21580 l0 -261 -132 3 -133 3 -3 128 -3 127 -124 0 -124 0 -3
-127 -3 -128 -127 -3 -128 -3 0 -129 0 -130 130 0 130 0 0 -130 0 -130 -130 0
-130 0 0 -130 0 -130 130 0 130 0 0 -130 0 -130 260 0 260 0 0 -130 0 -130
-130 0 -130 0 0 -130 0 -130 -130 0 -130 0 0 -130 0 -130 255 0 255 0 0 130 0
130 390 0 390 0 0 390 0 390 -125 0 -125 0 0 -260 0 -260 -135 0 -135 0 0 260
0 259 -127 3 -128 3 -3 128 -3 127 -129 0 -130 0 0 130 0 130 652 2 652 3 -2
105 c-1 58 -1 115 -2 127 0 22 -3 22 -127 25 l-128 3 -3 128 -3 127 -124 0
-125 0 0 -130 0 -131 -132 3 -133 3 -3 258 -2 257 -125 0 -125 0 0 -260z"/>
<path d="M7620 21710 l0 -130 -130 0 -130 0 0 -130 0 -131 128 3 127 3 3 128
3 127 102 1 c56 1 113 2 127 2 l25 2 3 128 3 127 -131 0 -130 0 0 -130z"/>
<path d="M6840 21450 l0 -130 119 0 c90 0 121 3 130 14 8 10 11 51 9 128 l-3
113 -127 3 -128 3 0 -131z"/>
<path d="M7882 21453 l3 -128 125 0 125 0 3 128 3 127 -131 0 -131 0 3 -127z"/>
<path d="M2417 21053 c-4 -3 -7 -62 -7 -129 l0 -123 -127 -3 -128 -3 0 -125 0
-125 258 -3 257 -2 0 260 0 260 -123 0 c-68 0 -127 -3 -130 -7z"/>
<path d="M2937 21053 c-9 -8 -9 -216 -1 -237 5 -13 26 -16 130 -16 l124 0 0
130 0 130 -123 0 c-68 0 -127 -3 -130 -7z"/>
<path d="M4760 20930 l0 -130 125 0 125 0 0 130 0 130 -125 0 -125 0 0 -130z"/>
<path d="M9702 20933 l3 -128 255 0 255 0 3 128 3 127 -261 0 -261 0 3 -127z"/>
<path d="M6060 20670 l0 -130 125 0 125 0 0 130 0 130 -125 0 -125 0 0 -130z"/>
<path d="M4760 20410 l0 -130 125 0 125 0 0 130 0 130 -125 0 -125 0 0 -130z"/>
<path d="M5020 20020 l0 -260 125 0 125 0 0 260 0 260 -125 0 -125 0 0 -260z"/>
<path d="M3720 19890 l0 -130 125 0 125 0 0 130 0 130 -125 0 -125 0 0 -130z"/>
<path d="M4240 19890 l0 -130 125 0 125 0 0 130 0 130 -125 0 -125 0 0 -130z"/>
<path d="M5950 19314 c0 -7 306 -388 324 -403 10 -8 19 10 40 82 15 50 38 128
52 172 13 44 24 85 24 91 0 15 -31 20 -215 39 -82 8 -167 17 -187 20 -21 3
-38 2 -38 -1z"/>
<path d="M6400 19183 c-12 -43 -33 -112 -46 -153 -12 -42 -25 -92 -29 -112 -8
-43 -32 -35 210 -72 235 -36 225 -38 173 32 -96 131 -271 368 -278 375 -3 4
-17 -28 -30 -70z"/>
<path d="M5940 19242 c0 -4 23 -30 50 -57 59 -58 65 -51 13 16 -33 44 -63 63
-63 41z"/>
<path d="M2417 19233 c-4 -3 -7 -62 -7 -129 l0 -123 -127 -3 -128 -3 0 -255 0
-255 128 -3 127 -3 0 131 0 130 130 0 130 0 0 260 0 260 -123 0 c-68 0 -127
-3 -130 -7z"/>
<path d="M7280 19230 c0 -6 6 -23 14 -38 7 -15 21 -57 31 -94 10 -38 22 -68
27 -68 5 0 7 46 6 103 l-3 102 -37 3 c-23 2 -38 -1 -38 -8z"/>
<path d="M6785 19014 c-33 -7 -72 -13 -87 -14 -15 0 -29 -4 -32 -8 -6 -10 102
-157 116 -157 9 0 78 165 78 186 0 11 2 11 -75 -7z"/>
<path d="M6877 18989 c-8 -19 -12 -37 -10 -41 6 -11 93 -10 93 0 0 4 -15 23
-34 41 l-35 34 -14 -34z"/>
<path d="M6320 18839 c0 -7 12 -61 26 -120 24 -103 26 -108 47 -99 12 5 69 32
127 60 58 28 126 61 152 73 26 12 47 25 48 28 0 6 -75 20 -240 45 -52 7 -110
16 -127 19 -23 4 -33 2 -33 -6z"/>
<path d="M6273 18797 c-6 -23 -22 -81 -37 -130 -60 -203 -76 -260 -71 -265 2
-3 44 27 92 65 86 68 88 71 86 111 -1 34 -49 252 -57 259 -2 2 -7 -16 -13 -40z"/>
<path d="M6650 18715 c-47 -24 -83 -44 -80 -44 3 -1 44 15 90 34 46 19 86 35
87 35 2 0 3 5 3 10 0 15 -9 12 -100 -35z"/>
<path d="M3720 18330 l0 -130 125 0 125 0 0 130 0 130 -125 0 -125 0 0 -130z"/>
<path d="M9967 18454 c-4 -4 -7 -63 -7 -131 l0 -123 130 0 131 0 -3 128 -3
127 -121 3 c-66 1 -123 -1 -127 -4z"/>
<path d="M10487 18453 c-4 -3 -7 -62 -7 -130 l0 -123 130 0 130 0 0 130 0 130
-123 0 c-68 0 -127 -3 -130 -7z"/>
<path d="M7100 18070 l0 -131 128 3 127 3 0 125 0 125 -127 3 -128 3 0 -131z"/>
<path d="M10227 17933 c-4 -3 -7 -120 -7 -260 l0 -253 130 0 130 0 0 -132 0
-133 -127 0 -128 0 -5 -130 -5 -130 -127 -3 -128 -3 0 -124 0 -125 130 0 130
0 0 -130 0 -130 260 0 260 0 0 125 0 124 -127 3 -128 3 -3 133 -3 132 131 0
130 0 0 390 0 390 -130 0 -130 0 0 130 0 130 -123 0 c-68 0 -127 -3 -130 -7z"/>
<path d="M2242 16892 l-93 -3 3 -122 3 -122 128 -3 127 -3 0 126 c0 112 -2
125 -17 126 -10 0 -27 1 -38 2 -11 1 -62 1 -113 -1z"/>
<path d="M2674 16891 c-2 -2 -4 -60 -4 -128 l0 -123 130 0 130 0 0 125 c0 112
-2 125 -17 126 -90 3 -236 3 -239 0z"/>
<path d="M3753 16892 l-33 -3 0 -125 0 -124 255 0 255 0 0 128 0 127 -222 0
c-123 0 -238 -1 -255 -3z"/>
<path d="M4240 16245 l0 -385 385 0 385 0 0 255 0 254 -127 3 -128 3 -3 128
-3 127 -254 0 -255 0 0 -385z"/>
<path d="M7100 16505 l0 -126 128 3 127 3 0 120 0 120 -127 3 -128 3 0 -126z"/>
<path d="M6844 16371 c-2 -2 -4 -60 -4 -128 l0 -124 128 3 127 3 1 122 0 122
-124 3 c-68 2 -126 1 -128 -1z"/>
<path d="M2150 15465 l0 -905 910 0 910 0 0 905 0 905 -910 0 -910 0 0 -905z
m1565 0 l0 -650 -652 -3 -653 -2 0 655 0 655 653 -2 652 -3 0 -650z"/>
<path d="M2672 15468 l3 -383 388 -3 387 -2 0 385 0 385 -390 0 -390 0 2 -382z"/>
<path d="M4240 15465 l0 -125 258 -2 257 -3 3 -387 2 -388 125 0 125 0 2 258
3 257 128 3 127 3 0 124 0 124 -127 3 -128 3 -3 128 -3 127 -384 0 -385 0 0
-125z"/>
<path d="M7360 15465 l0 -125 130 0 130 0 0 125 0 125 -130 0 -130 0 0 -125z"/>
<path d="M7880 15330 l0 -260 -130 0 -130 0 0 -255 0 -255 260 0 260 0 0 130
0 130 130 0 130 0 0 125 0 125 -130 0 -130 0 0 260 0 260 -130 0 -130 0 0
-260z"/>
<path d="M10480 15205 l0 -125 130 0 130 0 0 125 0 125 -130 0 -130 0 0 -125z"/>
<path d="M4240 14945 l0 -125 125 0 125 0 0 125 0 125 -125 0 -125 0 0 -125z"/>
<path d="M5280 14945 l0 -125 125 0 125 0 0 125 0 125 -125 0 -125 0 0 -125z"/>
<path d="M8920 14815 l0 -255 130 0 130 0 0 255 0 255 -130 0 -130 0 0 -255z"/>
<path d="M6060 14685 l0 -125 125 0 125 0 0 125 0 125 -125 0 -125 0 0 -125z"/>
<path d="M6840 14685 l0 -126 127 3 127 3 3 100 c6 155 15 145 -132 145 l-125
0 0 -125z"/>
<path d="M8400 14685 l0 -125 130 0 130 0 0 125 0 125 -130 0 -130 0 0 -125z"/>
<path d="M9440 14685 l0 -125 520 0 520 0 0 125 0 125 -520 0 -520 0 0 -125z"/>
<path d="M3215 11929 c-45 -17 -82 -57 -102 -108 -15 -37 -18 -77 -18 -206 0
-151 1 -163 25 -210 40 -80 110 -115 205 -101 56 9 102 46 128 106 17 36 22
72 25 176 6 190 -16 273 -89 326 -31 24 -130 33 -174 17z m139 -78 c37 -32 46
-74 46 -223 0 -160 -8 -204 -46 -239 -52 -49 -144 -21 -170 52 -15 42 -18 299
-4 350 22 79 115 112 174 60z"/>
<path d="M6365 11928 c-71 -26 -124 -93 -125 -155 0 -20 5 -23 40 -23 37 0 40
2 40 29 0 97 158 133 211 47 45 -73 20 -126 -151 -315 -102 -113 -130 -151
-130 -173 l0 -28 205 0 205 0 0 30 0 30 -155 0 c-85 0 -155 2 -155 5 0 3 49
59 108 124 59 66 121 143 137 172 54 99 31 204 -53 245 -45 21 -136 28 -177
12z"/>
<path d="M7638 11930 c-74 -22 -120 -71 -133 -142 l-7 -38 41 0 c36 0 41 3 41
23 0 46 45 92 99 101 71 11 131 -38 131 -107 0 -58 -27 -100 -169 -257 -99
-110 -130 -152 -131 -172 l0 -28 205 0 205 0 0 30 0 29 -157 3 -158 3 89 95
c165 177 205 247 191 335 -14 100 -133 160 -247 125z"/>
<path d="M3855 11890 c-100 -38 -100 -38 -103 -74 l-3 -36 67 25 c36 14 73 25
80 25 12 0 14 -46 14 -260 l0 -260 35 0 35 0 0 310 c0 242 -3 310 -12 309 -7
0 -58 -18 -113 -39z"/>
<path d="M4340 11900 l0 -30 165 0 c91 0 165 -2 165 -4 0 -2 -56 -124 -125
-272 l-124 -269 36 -3 c19 -2 39 0 43 5 18 21 250 556 250 578 l0 25 -205 0
-205 0 0 -30z"/>
<path d="M4970 11900 l0 -30 165 0 c91 0 165 -3 165 -6 0 -5 -211 -467 -237
-517 l-14 -28 42 3 43 3 128 285 c70 157 128 293 128 303 0 16 -17 17 -210 17
l-210 0 0 -30z"/>
<path d="M5600 11900 l0 -30 165 0 c91 0 165 -3 165 -6 0 -5 -211 -467 -237
-517 l-14 -28 42 3 43 3 128 285 c70 157 128 293 128 303 0 16 -17 17 -210 17
l-210 0 0 -30z"/>
<path d="M7008 11888 c-108 -40 -108 -40 -108 -74 0 -19 1 -34 3 -34 1 0 37
13 80 29 l77 29 0 -264 0 -264 40 0 40 0 0 310 c0 242 -3 310 -12 309 -7 0
-61 -18 -120 -41z"/>
<path d="M8268 11888 c-108 -40 -108 -40 -108 -74 0 -19 2 -34 4 -34 2 0 34
11 70 25 37 14 71 25 76 25 6 0 10 -97 10 -260 l0 -260 40 0 40 0 0 310 c0
242 -3 310 -12 309 -7 0 -61 -18 -120 -41z"/>
<path d="M9390 11900 l0 -30 165 0 c91 0 165 -3 165 -6 0 -5 -211 -467 -237
-517 l-14 -28 42 3 43 3 128 285 c70 157 128 293 128 303 0 16 -17 17 -210 17
l-210 0 0 -30z"/>
<path d="M8886 11712 c-89 -136 -136 -218 -136 -235 l0 -27 140 0 140 0 0 -70
0 -70 40 0 40 0 0 70 0 70 40 0 c38 0 40 2 40 30 0 28 -2 30 -40 30 l-40 0 0
205 0 205 -44 0 -44 0 -136 -208z m144 -52 l0 -150 -96 0 c-78 0 -95 3 -91 14
7 16 180 286 184 286 2 0 3 -67 3 -150z"/>
<path d="M4158 9365 c-53 -19 -102 -59 -144 -116 l-36 -49 26 -35 c14 -18 26
-36 26 -38 0 -3 -32 -5 -71 -5 -70 0 -72 0 -82 29 -10 26 -16 29 -59 29 l-48
0 0 -51 c0 -50 0 -51 -17 -31 -22 26 -3 25 -345 23 l-288 -1 0 -45 c0 -33 4
-45 15 -45 9 0 15 -9 15 -25 0 -21 6 -26 39 -31 66 -10 135 -64 84 -64 -25 0
-74 -34 -89 -62 -20 -36 -17 -106 7 -144 19 -31 75 -74 96 -74 5 0 19 20 31
45 21 44 21 45 2 55 -43 23 -48 73 -8 86 38 12 86 -6 137 -52 l51 -46 0 -69 0
-69 60 0 60 0 0 225 0 225 50 0 c41 0 56 -5 75 -25 25 -24 25 -25 25 -225 l0
-200 55 0 55 0 2 223 3 222 78 3 77 3 0 -226 0 -225 55 0 55 0 0 225 0 225
220 0 220 0 0 -80 c0 -44 -2 -80 -5 -80 -2 0 -24 14 -49 31 -71 51 -187 53
-239 5 -33 -31 -50 -91 -37 -136 11 -38 52 -85 92 -106 27 -14 28 -14 53 36
14 27 21 50 15 50 -15 0 -50 38 -50 55 0 8 11 22 25 31 24 15 28 15 69 0 24
-9 62 -32 84 -52 l42 -36 0 -84 0 -84 60 0 60 0 0 225 0 225 40 0 40 0 0 45 0
45 -282 1 c-156 1 -299 0 -319 -1 -29 -1 -41 4 -58 26 -29 37 -27 46 18 87 90
81 187 69 378 -48 l42 -25 27 35 c16 22 23 40 18 45 -24 24 -176 103 -233 120
-73 23 -169 25 -223 5z m-656 -427 c2 -51 2 -95 1 -97 -1 -1 -17 9 -36 23 -19
14 -39 26 -45 26 -6 0 -16 18 -22 39 -6 24 -24 52 -45 70 l-36 31 90 0 90 0 3
-92z"/>
<path d="M7532 9354 c-55 -27 -142 -123 -142 -154 0 -8 9 -26 20 -40 27 -35
25 -40 -15 -40 -32 0 -35 -2 -35 -30 0 -29 2 -30 45 -30 l45 0 0 -240 0 -240
30 0 30 0 0 240 0 240 230 0 c261 0 281 -7 158 -55 -40 -15 -117 -50 -170 -77
l-97 -49 17 -44 c13 -35 21 -45 46 -49 86 -17 196 -89 247 -162 24 -35 36 -44
59 -44 l30 0 0 240 0 240 225 0 c210 0 225 -1 225 -18 0 -13 -15 -23 -52 -36
-79 -28 -259 -116 -264 -131 -3 -7 1 -28 9 -46 11 -28 22 -36 62 -47 26 -7 67
-24 91 -38 43 -25 154 -137 154 -155 0 -5 16 -9 35 -9 l35 0 0 190 c0 217 -5
208 87 165 97 -45 111 -137 23 -151 -36 -6 -40 -9 -40 -35 0 -27 2 -29 43 -29
52 0 104 30 113 65 4 15 4 47 1 71 -8 72 -87 142 -184 162 -24 5 -39 14 -41
25 -3 15 11 17 151 17 l155 0 26 -31 26 -31 0 -209 0 -209 30 0 30 0 0 240 0
240 63 2 c127 5 139 3 164 -26 13 -15 23 -35 23 -45 0 -34 -39 -71 -81 -77
-38 -6 -40 -9 -37 -38 3 -26 7 -31 28 -29 52 5 74 15 101 44 l27 29 32 -30
c17 -16 49 -33 73 -37 37 -8 43 -7 49 12 11 37 8 42 -28 48 -100 16 -116 129
-23 152 33 8 78 -14 113 -55 l26 -32 0 -199 0 -199 35 0 35 0 0 240 0 240 45
0 c43 0 45 1 45 30 0 29 -2 30 -46 30 -42 0 -47 3 -57 30 -8 21 -18 30 -34 30
-21 0 -23 -4 -23 -56 l0 -55 -32 25 c-63 48 -136 46 -186 -4 l-29 -29 -23 24
c-35 38 -80 48 -174 40 l-84 -7 -7 31 c-5 24 -12 31 -31 31 -22 0 -24 -4 -24
-50 l0 -51 -28 21 c-27 20 -38 20 -703 20 l-676 0 -22 31 c-27 37 -22 55 29
108 89 92 220 77 378 -42 l53 -40 21 20 20 21 -53 42 c-86 69 -188 112 -272
117 -63 4 -79 1 -125 -23z m438 -532 l0 -138 -55 52 c-36 34 -79 62 -125 81
-59 25 -68 32 -56 42 19 16 207 101 224 101 9 0 12 -34 12 -138z m513 -140
c-1 -2 -9 8 -18 22 -24 37 -107 95 -172 122 l-56 22 64 33 c35 18 89 42 119
55 l55 22 5 -136 c3 -76 4 -139 3 -140z"/>
<path d="M10960 9130 l0 -51 -28 21 c-25 19 -42 21 -158 21 -71 0 -306 0 -521
-1 l-393 0 0 -30 0 -30 128 0 c124 0 129 -1 152 -25 l24 -25 -27 -28 c-20 -21
-27 -38 -27 -69 0 -47 10 -58 46 -49 20 5 24 13 24 41 0 29 5 37 26 45 58 23
124 -31 124 -100 0 -83 -41 -120 -130 -120 -97 0 -159 53 -215 185 -28 65 -43
76 -74 56 -31 -20 65 -204 133 -256 91 -70 206 -73 293 -8 l32 24 42 -38 c23
-21 53 -55 66 -75 18 -30 29 -38 53 -38 l30 0 0 240 0 240 104 0 103 0 -23
-47 c-27 -53 -29 -91 -9 -183 29 -133 15 -186 -60 -216 -45 -19 -54 -35 -35
-64 8 -12 14 -13 47 -1 112 40 143 108 117 256 -7 44 -14 103 -14 131 0 115
97 168 150 81 18 -29 20 -51 20 -234 l0 -203 30 0 30 0 0 240 0 240 45 0 c43
0 45 1 45 30 0 29 -2 30 -44 30 -40 0 -45 3 -55 30 -7 20 -17 30 -30 30 -18 0
-21 -6 -21 -50z m-460 -259 l0 -188 -52 51 c-49 49 -52 54 -53 108 -3 88 -51
151 -125 167 -18 3 -39 16 -48 29 l-14 22 146 0 146 0 0 -189z"/>
<path d="M11580 9088 l0 -91 -58 56 c-113 107 -212 104 -332 -9 l-65 -62 30
-32 c26 -27 34 -30 68 -24 29 4 43 2 58 -12 24 -22 24 -41 -2 -83 l-20 -33 22
-24 23 -25 76 73 c41 41 92 89 113 108 l38 35 24 -30 c23 -29 24 -35 25 -192
l0 -163 35 0 35 0 0 240 0 240 45 0 c43 0 45 1 45 30 0 29 -2 30 -46 30 -41 0
-46 3 -55 30 -8 22 -17 30 -35 30 -24 0 -24 -2 -24 -92z m-129 -49 c16 -11 29
-24 29 -27 0 -10 -113 -122 -123 -122 -4 0 -7 10 -7 23 0 37 -42 70 -90 70
l-41 0 23 25 c57 62 147 75 209 31z"/>
<path d="M1465 9120 c-65 -5 -94 -21 -157 -87 -120 -124 -123 -343 -6 -421 47
-31 144 -42 202 -22 l35 11 -21 43 c-21 43 -21 43 -58 34 -74 -19 -130 38
-130 132 0 55 23 107 68 153 47 49 81 67 127 67 35 0 36 -1 30 -28 -6 -27 -4
-28 53 -40 62 -13 93 -36 111 -85 33 -85 -18 -143 -70 -82 -20 22 -24 23 -48
10 -57 -31 -57 -30 -26 -70 30 -40 77 -65 122 -65 46 0 89 35 143 115 45 67
55 76 78 73 l27 -3 3 -137 3 -138 59 0 60 0 0 225 0 225 215 0 215 0 0 -50 0
-49 -35 23 c-121 82 -295 40 -295 -70 0 -47 27 -93 67 -116 l30 -17 23 40 c16
30 19 44 11 52 -6 6 -11 19 -11 29 0 64 147 22 231 -67 52 -55 131 -59 202
-11 32 22 36 22 40 7 2 -10 -1 -33 -7 -52 -20 -60 -120 -89 -199 -56 -35 15
-101 83 -119 123 -9 18 -16 23 -32 18 -34 -11 -76 -34 -76 -42 0 -16 58 -98
91 -129 58 -54 122 -77 219 -78 73 0 93 4 135 26 89 45 122 128 91 231 -9 29
-24 63 -34 76 -16 21 -21 22 -64 13 -28 -7 -58 -22 -76 -41 -37 -36 -69 -39
-77 -7 -4 13 -5 50 -3 82 l3 60 153 3 152 3 0 44 0 45 -382 0 c-211 0 -525 1
-698 3 -173 1 -342 0 -375 -3z m485 -136 c0 -40 -2 -45 -17 -39 -45 20 -78 17
-104 -9 l-26 -26 -16 40 c-9 24 -28 47 -49 60 l-33 20 123 0 122 0 0 -46z"/>
<path d="M5348 9122 l-358 -2 0 -30 0 -30 185 0 c172 0 185 -1 185 -18 0 -13
-15 -23 -52 -36 -79 -28 -259 -116 -264 -131 -3 -7 1 -28 9 -46 11 -28 22 -36
62 -47 26 -7 67 -24 91 -38 43 -25 154 -137 154 -155 0 -5 16 -9 35 -9 l35 0
0 190 c0 217 -5 208 87 165 97 -45 111 -137 23 -151 -36 -6 -40 -9 -40 -35 0
-27 2 -29 43 -29 52 0 104 30 113 65 4 15 4 47 1 71 -8 72 -87 142 -184 162
-24 5 -39 14 -41 25 -3 16 21 17 322 17 269 0 326 -2 326 -14 0 -7 -27 -23
-62 -36 -35 -12 -112 -47 -171 -77 -89 -44 -107 -57 -102 -71 4 -9 11 -29 17
-44 6 -18 19 -28 41 -32 61 -12 138 -56 197 -112 33 -31 62 -65 65 -75 5 -14
16 -19 41 -19 l34 0 0 240 0 240 130 0 131 0 -35 -31 c-19 -17 -48 -56 -63
-87 -24 -48 -28 -69 -27 -137 0 -145 68 -225 189 -225 42 0 95 16 95 29 0 4
-7 17 -16 29 -12 17 -19 20 -34 12 -52 -28 -123 2 -151 63 -49 108 0 253 109
325 23 15 65 18 357 22 l330 5 3 28 3 27 -313 0 c-172 0 -500 2 -728 3 -228 1
-576 1 -772 -1z m15 -440 c-1 -2 -9 8 -18 22 -24 37 -107 95 -172 122 l-56 22
64 33 c35 18 89 42 119 55 l55 22 5 -136 c3 -76 4 -139 3 -140z m717 136 l0
-143 -26 33 c-35 44 -107 92 -179 118 l-59 22 64 32 c79 40 171 79 188 80 9 0
12 -35 12 -142z"/>
<path d="M6855 9005 c-22 -8 -41 -15 -43 -15 -2 0 -10 -16 -18 -36 -16 -38
-10 -104 10 -104 39 1 55 13 50 39 -14 69 80 91 138 33 40 -39 50 -118 23
-168 -32 -60 -139 -83 -214 -45 -69 36 -115 101 -156 221 -21 60 -24 65 -50
63 -15 -1 -30 -4 -32 -7 -8 -8 25 -103 59 -172 60 -123 148 -185 263 -185 86
0 145 26 181 81 24 36 28 53 28 109 0 68 -11 99 -48 139 -46 51 -126 71 -191
47z"/>
<path d="M5848 8673 c-22 -5 -35 -50 -21 -72 15 -23 64 -27 80 -5 18 25 16 41
-7 64 -20 20 -22 21 -52 13z"/>
<path d="M1716 8206 c-44 -17 -95 -62 -138 -124 l-30 -44 26 -36 26 -37 -40
-3 c-37 -3 -40 -5 -40 -33 0 -28 2 -29 45 -29 l45 0 0 -240 0 -240 35 0 35 0
0 240 0 240 80 0 80 0 0 -150 c0 -149 0 -150 24 -161 22 -10 30 -6 85 42 55
49 174 129 191 129 4 0 1 -24 -7 -52 -25 -93 0 -288 37 -288 44 0 48 7 33 63
-19 76 -16 177 8 249 l20 61 -22 23 c-12 13 -27 24 -34 24 -25 0 -155 -71
-208 -114 -31 -25 -59 -46 -62 -46 -3 0 -5 50 -5 110 l0 110 281 0 280 0 -35
-34 c-115 -108 -120 -329 -9 -413 41 -31 126 -43 173 -23 35 14 33 12 19 44
-10 21 -15 23 -36 15 -161 -61 -235 184 -102 335 50 57 85 76 138 76 36 0 40
-3 38 -21 -2 -17 6 -24 38 -33 42 -13 125 -53 125 -61 0 -2 -36 -23 -81 -46
-44 -23 -83 -47 -85 -54 -3 -6 2 -27 10 -47 13 -31 21 -36 59 -42 69 -10 163
-61 226 -121 45 -43 65 -55 89 -55 l32 0 0 240 0 240 45 0 c43 0 45 1 45 30
l0 30 -277 0 c-153 0 -486 0 -740 0 l-461 0 -27 31 c-25 30 -25 32 -9 58 30
47 58 73 99 92 92 42 188 14 343 -101 33 -25 34 -25 48 -5 8 10 13 23 12 27
-6 15 -115 90 -176 120 -75 37 -182 48 -246 24z m1274 -502 l0 -197 -44 41
c-49 45 -95 71 -175 97 l-55 18 87 44 c73 36 87 47 87 67 0 26 -38 60 -116
101 l-47 25 132 0 131 0 0 -196z"/>
<path d="M6766 8205 c-44 -15 -94 -60 -138 -123 l-30 -44 19 -26 c11 -15 23
-32 26 -39 6 -9 -81 -12 -382 -12 l-389 -1 -7 30 c-5 23 -12 30 -31 30 -22 0
-24 -4 -24 -50 l0 -51 -28 21 c-27 20 -40 21 -416 20 l-389 0 -51 -28 c-65
-37 -131 -117 -151 -184 -32 -110 -11 -223 55 -282 46 -42 73 -50 141 -44 63
6 77 18 61 53 -10 22 -15 24 -33 14 -29 -15 -95 -5 -121 18 -44 39 -62 140
-38 222 15 52 60 111 109 143 l45 28 193 0 c178 0 193 -1 193 -18 0 -12 -19
-24 -67 -41 -38 -13 -112 -46 -165 -73 l-96 -50 16 -44 c12 -32 22 -44 37 -44
62 0 209 -101 256 -176 17 -28 27 -34 55 -34 l34 0 0 191 0 191 33 -7 c54 -12
114 -52 126 -85 16 -48 0 -78 -48 -86 -31 -5 -40 -11 -44 -30 -5 -31 -1 -34
44 -34 77 0 119 41 119 117 0 74 -65 141 -167 173 -35 11 -59 24 -61 34 -3 14
14 16 151 16 l155 0 26 -31 26 -31 0 -209 0 -209 30 0 30 0 0 240 0 240 164 0
164 0 4 -104 c3 -93 6 -108 27 -130 47 -50 122 -39 182 25 16 18 32 29 35 26
3 -3 10 -24 15 -46 12 -56 -7 -109 -50 -138 -40 -27 -122 -31 -174 -9 -67 29
-135 131 -172 259 -16 56 -18 58 -43 52 -36 -9 -36 -8 -23 -62 33 -131 121
-262 206 -306 51 -27 174 -30 221 -5 102 55 131 172 72 296 -28 59 -56 57
-118 -9 -39 -42 -53 -50 -76 -47 l-29 3 -3 98 -3 97 196 0 195 0 0 -240 0
-240 35 0 35 0 0 240 0 240 84 0 85 0 3 -201 3 -201 28 -23 c38 -34 85 -40
150 -21 101 29 176 129 177 234 0 46 -4 58 -29 83 -25 25 -37 29 -85 29 -61 0
-66 -4 -59 -41 4 -20 10 -25 24 -22 31 8 69 -6 80 -31 37 -81 -96 -223 -187
-200 -36 9 -44 54 -44 230 l0 164 178 2 177 3 3 28 c3 26 2 27 -46 27 l-49 0
-7 39 c-7 45 -60 98 -159 158 -102 62 -205 79 -291 48z m233 -82 l56 -28 -53
-3 c-61 -4 -101 13 -114 47 -8 22 -7 23 24 17 17 -3 57 -18 87 -33z m-170 -8
c22 -62 59 -78 189 -84 97 -5 116 -9 128 -25 32 -45 27 -46 -205 -46 l-219 0
-26 31 c-26 30 -26 31 -9 61 24 41 89 98 111 98 11 0 23 -13 31 -35z m-1449
-451 l0 -137 -52 50 c-49 45 -148 103 -180 103 -20 1 20 29 82 58 47 21 139
60 148 62 1 0 2 -61 2 -136z"/>
<path d="M3578 8036 c-121 -45 -168 -131 -168 -306 0 -114 17 -180 61 -233 46
-56 101 -80 186 -83 70 -2 74 -4 132 -49 l60 -47 25 19 c14 10 26 21 26 24 0
5 -64 60 -99 85 -2 2 13 22 33 46 48 56 66 120 66 238 0 156 -40 244 -133 291
-52 27 -140 34 -189 15z m169 -84 c55 -39 68 -81 68 -222 0 -107 -3 -131 -21
-164 -32 -62 -65 -81 -137 -81 -118 0 -160 57 -165 225 -5 148 19 218 90 254
44 22 125 17 165 -12z"/>
<path d="M4030 7731 l0 -311 40 0 40 0 0 125 0 126 77 -3 78 -3 65 -120 65
-120 43 -3 c23 -2 42 -1 42 1 0 3 -31 62 -70 131 -38 70 -70 128 -70 130 0 2
16 13 35 25 52 30 75 75 75 144 0 79 -22 121 -79 155 -43 25 -54 27 -193 31
l-148 3 0 -311z m283 228 c39 -20 57 -51 57 -102 0 -42 -5 -54 -34 -83 -34
-34 -34 -34 -130 -34 l-96 0 0 115 0 115 91 0 c50 0 100 -5 112 -11z"/>
<path d="M8540 7968 l0 -51 -24 22 c-23 22 -32 23 -158 22 -73 0 -292 -1 -485
-1 l-353 0 0 -30 0 -30 121 0 122 0 -6 -51 c-12 -101 -68 -132 -122 -68 -24
29 -28 31 -51 19 -13 -7 -24 -17 -24 -20 0 -19 80 -88 109 -93 48 -10 94 14
115 58 l18 37 26 -30 c15 -17 40 -37 56 -45 l29 -14 -54 -17 c-47 -15 -188
-74 -197 -81 -2 -2 5 -20 15 -40 16 -33 25 -40 73 -52 65 -16 124 -49 164 -92
20 -20 39 -31 58 -31 l28 0 0 130 c0 124 1 130 20 130 30 0 98 -37 110 -59 24
-45 2 -81 -49 -81 -17 0 -21 -6 -21 -30 0 -28 3 -30 35 -30 155 0 141 196 -17
241 -24 7 -44 13 -46 15 -2 1 11 16 28 33 29 29 31 36 28 84 -2 28 -8 60 -12
70 -8 16 2 17 133 17 78 0 141 -1 141 -3 0 -1 -9 -20 -20 -42 -24 -47 -25 -91
-5 -204 23 -129 8 -170 -77 -206 -33 -13 -36 -18 -29 -37 11 -30 48 -28 105 6
75 44 91 117 62 281 -7 39 -9 87 -5 109 16 87 84 124 134 70 l25 -27 0 -213 0
-214 35 0 35 0 0 240 0 240 230 0 230 0 0 -106 0 -106 -35 31 c-74 65 -148 84
-219 57 -110 -42 -108 -183 4 -241 24 -12 27 -11 42 16 17 29 17 29 -13 44
-59 31 -57 108 5 128 44 15 98 -7 160 -64 l56 -51 0 -94 0 -94 35 0 35 0 0
240 0 240 45 0 c43 0 45 1 45 30 l0 30 -267 1 c-148 0 -287 0 -311 -1 -39 -1
-43 1 -53 29 -8 23 -17 31 -35 31 -22 0 -24 -4 -24 -52z m-526 -112 c23 -46
14 -85 -24 -103 -56 -26 -125 20 -153 102 l-16 46 87 -3 87 -3 19 -39z m-74
-307 c0 -79 -6 -92 -31 -63 -14 17 -75 50 -128 69 l-36 13 30 12 c79 33 151
57 158 53 4 -2 7 -40 7 -84z"/>
<path d="M9788 7962 l-358 -2 0 -30 0 -30 185 0 c172 0 185 -1 185 -18 0 -13
-15 -23 -52 -36 -79 -28 -259 -116 -264 -131 -3 -7 1 -28 9 -46 11 -28 22 -36
62 -47 26 -7 67 -24 91 -38 43 -25 154 -137 154 -155 0 -5 16 -9 35 -9 l35 0
0 190 c0 217 -5 208 87 165 97 -45 111 -137 23 -151 -36 -6 -40 -9 -40 -35 0
-27 2 -29 43 -29 52 0 104 30 113 65 4 15 4 47 1 71 -8 72 -87 142 -184 162
-24 5 -39 14 -41 25 -3 16 21 17 322 17 269 0 326 -2 326 -14 0 -7 -27 -23
-62 -36 -35 -12 -112 -47 -171 -77 -89 -44 -107 -57 -102 -71 4 -9 11 -29 17
-44 6 -18 19 -28 41 -32 61 -12 138 -56 197 -112 33 -31 62 -65 65 -75 5 -14
16 -19 41 -19 l34 0 0 100 0 101 28 -21 c61 -45 143 -42 181 6 25 32 28 101 7
143 -25 47 -101 86 -117 60 -16 -26 -9 -47 21 -59 35 -14 50 -37 50 -74 0 -33
-40 -60 -72 -51 -64 20 -97 88 -98 198 l0 77 325 0 325 0 0 -105 0 -105 -51
39 c-106 80 -220 80 -269 -1 -39 -65 -15 -149 56 -190 l31 -18 18 26 c17 26
17 26 -19 56 -57 47 -45 106 27 123 38 10 127 -35 172 -87 34 -41 35 -43 35
-130 l0 -88 30 0 30 0 0 240 0 240 45 0 c43 0 45 1 45 30 l0 30 -262 0 c-145
0 -423 1 -618 3 -195 1 -516 1 -712 -1z m15 -440 c-1 -2 -9 8 -18 22 -24 37
-107 95 -172 122 l-56 22 64 33 c35 18 89 42 119 55 l55 22 5 -136 c3 -76 4
-139 3 -140z m717 136 l0 -143 -26 33 c-35 44 -107 92 -179 118 l-59 22 64 32
c79 40 171 79 188 80 9 0 12 -35 12 -142z"/>
<path d="M2722 7504 c-41 -29 -23 -84 28 -84 32 0 50 17 50 46 0 20 -32 54
-50 54 -3 0 -16 -7 -28 -16z"/>
<path d="M10288 7513 c-22 -5 -35 -50 -21 -72 15 -23 64 -27 80 -5 18 25 16
41 -7 64 -20 20 -22 21 -52 13z"/>
<path d="M6500 6191 c0 -3 49 -67 108 -142 59 -75 128 -162 153 -195 25 -32
162 -207 304 -389 142 -181 290 -371 329 -422 39 -51 74 -92 77 -93 4 0 9 10
12 23 2 12 11 47 20 77 8 30 54 197 102 370 48 173 92 335 99 360 55 196 68
251 63 256 -6 6 -278 40 -957 120 -74 9 -174 22 -222 28 -49 7 -88 10 -88 7z"/>
<path d="M7836 6010 c-9 -27 -34 -115 -39 -135 -3 -11 -37 -135 -75 -275 -39
-140 -96 -345 -127 -455 -30 -110 -55 -205 -55 -210 0 -6 51 -19 113 -28 890
-139 936 -146 1031 -163 44 -7 81 -12 83 -11 3 3 -162 234 -727 1018 -213 296
-198 277 -204 259z"/>
<path d="M6548 5887 c287 -274 422 -397 392 -357 -19 25 -104 134 -189 243
l-154 197 -68 0 -68 0 87 -83z"/>
<path d="M9030 5354 c-15 -3 -215 -39 -433 -78 -65 -12 -117 -25 -117 -31 3
-22 353 -496 361 -488 4 4 40 96 79 203 39 107 77 211 85 230 49 126 62 170
52 169 -7 -1 -19 -3 -27 -5z"/>
<path d="M9081 5230 c-24 -67 -41 -123 -38 -127 3 -3 76 -2 162 2 86 4 153 10
150 14 -4 3 -54 57 -112 119 -59 61 -109 112 -112 112 -4 0 -26 -54 -50 -120z"/>
<path d="M3520 4695 c0 -429 3 -555 12 -555 7 0 33 21 59 46 l47 46 17 -26
c50 -76 179 -100 274 -51 81 40 139 125 166 237 36 152 1 310 -87 397 -45 45
-86 61 -158 61 -88 0 -147 -35 -203 -120 -16 -23 -17 -9 -17 248 l0 272 -55 0
-55 0 0 -555z m380 76 c34 -24 67 -75 82 -125 19 -62 15 -240 -6 -309 -50
-164 -182 -216 -283 -112 -35 37 -44 55 -58 121 -33 148 6 353 80 414 48 40
136 45 185 11z"/>
<path d="M4247 5243 c-4 -3 -7 -253 -7 -555 l0 -548 60 0 60 0 0 286 c0 258 2
285 16 274 8 -8 91 -129 185 -269 93 -141 175 -264 182 -274 10 -15 23 -18 80
-15 l68 3 -48 75 c-26 41 -119 178 -206 303 -143 206 -158 231 -148 250 12 21
132 172 299 376 l83 101 -50 0 -50 0 -127 -167 c-193 -254 -258 -333 -271
-333 -10 0 -13 56 -13 250 l0 250 -53 0 c-30 0 -57 -3 -60 -7z"/>
<path d="M6200 4695 l0 -555 50 0 50 0 0 218 c0 264 9 319 59 372 80 84 210
58 242 -49 5 -20 13 -150 16 -288 l6 -253 48 0 49 0 0 238 c0 266 -12 351 -55
408 -37 48 -78 66 -150 67 -76 1 -142 -33 -183 -95 l-27 -42 -3 267 -2 267
-50 0 -50 0 0 -555z"/>
<path d="M5171 4849 c-24 -5 -66 -21 -95 -37 -49 -28 -51 -31 -54 -76 -4 -53
6 -58 30 -16 26 46 74 70 140 70 49 0 62 -4 91 -30 49 -42 73 -141 47 -190
-11 -20 -66 -39 -175 -61 -81 -15 -129 -42 -160 -86 -21 -31 -25 -49 -25 -106
0 -124 58 -189 169 -188 68 0 109 17 161 67 l36 34 12 -33 c18 -50 76 -70 136
-47 37 14 33 38 -6 42 l-33 3 -6 250 c-5 267 -11 299 -62 353 -44 48 -122 67
-206 51z m132 -601 c-38 -40 -75 -58 -120 -58 -68 0 -113 54 -113 136 0 87 51
132 185 164 l70 17 3 -115 c3 -114 2 -116 -25 -144z"/>
<path d="M5792 4850 c-94 -22 -152 -102 -152 -210 0 -90 24 -131 101 -169 34
-17 69 -31 77 -31 26 0 88 -41 105 -70 36 -61 10 -152 -52 -185 -60 -31 -115
-13 -174 55 -37 43 -40 43 -51 -5 -4 -16 -9 -38 -12 -48 -14 -45 171 -76 254
-41 84 35 135 114 135 209 0 103 -39 149 -171 196 -35 12 -77 35 -93 51 -75
76 -27 208 77 208 36 0 78 -30 104 -73 l18 -29 16 54 c19 63 13 71 -66 87 -55
12 -69 12 -116 1z"/>
<path d="M7540 4854 c0 -14 151 -661 158 -676 6 -13 85 23 512 237 282 142
498 255 490 258 -8 3 -262 44 -565 91 -302 48 -560 89 -572 91 -13 3 -23 3
-23 -1z"/>
<path d="M7467 4835 c-3 -11 -65 -229 -138 -485 -72 -256 -155 -548 -185 -650
-29 -101 -52 -185 -51 -186 2 -2 535 431 559 454 17 16 14 34 -57 352 -42 184
-82 367 -90 405 -8 39 -19 84 -23 100 -8 26 -10 27 -15 10z"/>
<path d="M8630 4563 c-80 -41 -261 -133 -404 -204 -142 -72 -256 -132 -254
-134 2 -3 150 54 329 126 497 199 446 174 465 231 9 27 14 51 12 53 -1 2 -68
-30 -148 -72z"/>
<path d="M7930 4210 c-8 -5 -10 -10 -5 -10 6 0 17 5 25 10 8 5 11 10 5 10 -5
0 -17 -5 -25 -10z"/>
</g>
</svg>
