<?xml version="1.0" standalone="no"?>
<!DOCTYPE svg PUBLIC "-//W3C//DTD SVG 20010904//EN"
 "http://www.w3.org/TR/2001/REC-SVG-20010904/DTD/svg10.dtd">
<svg version="1.0" xmlns="http://www.w3.org/2000/svg"
 width="971.000000pt" height="1391.000000pt" viewBox="0 0 971.000000 1391.000000"
 preserveAspectRatio="xMidYMid meet">
<metadata>
Created by potrace 1.16, written by Peter Selinger 2001-2019
</metadata>
<g transform="translate(0.000000,1391.000000) scale(0.100000,-0.100000)"
fill="#000000" stroke="none">
<path d="M1990 9225 l0 -595 595 0 595 0 0 595 0 595 -595 0 -595 0 0 -595z
m1020 0 l0 -425 -425 0 -425 0 0 425 0 425 425 0 425 0 0 -425z"/>
<path d="M2330 9225 l0 -255 255 0 255 0 0 255 0 255 -255 0 -255 0 0 -255z"/>
<path d="M3690 9650 l0 -170 85 0 85 0 0 170 0 170 -85 0 -85 0 0 -170z"/>
<path d="M4030 9735 l0 -85 85 0 85 0 0 85 0 85 -85 0 -85 0 0 -85z"/>
<path d="M4540 9650 l0 -170 -85 0 -85 0 0 -170 0 -170 -85 0 -85 0 0 170 0
170 -85 0 -85 0 0 -170 0 -170 85 0 85 0 0 -85 0 -85 -170 0 -170 0 0 -85 0
-85 -85 0 -85 0 0 170 0 170 85 0 85 0 0 85 0 85 -255 0 -255 0 0 -85 0 -85
85 0 85 0 0 -85 0 -85 -85 0 -85 0 0 -170 0 -170 85 0 85 0 0 -85 0 -85 -255
0 -255 0 0 -85 0 -85 -85 0 -85 0 0 85 0 85 -425 0 -425 0 0 -170 0 -170 85 0
85 0 0 85 0 85 85 0 85 0 0 -170 0 -170 -170 0 -170 0 0 -85 0 -85 170 0 170
0 0 85 0 85 85 0 85 0 0 -85 0 -85 85 0 85 0 0 -170 0 -170 -170 0 -170 0 0
85 0 85 -170 0 -170 0 0 -85 0 -85 85 0 85 0 0 -170 0 -170 -85 0 -85 0 0 -85
0 -85 85 0 85 0 0 85 0 85 85 0 85 0 0 -170 0 -170 -85 0 -85 0 0 -85 0 -85
-85 0 -85 0 0 -85 0 -85 85 0 85 0 0 -85 0 -85 -85 0 -85 0 0 -340 0 -340 85
0 85 0 0 340 0 340 85 0 85 0 0 -170 0 -170 170 0 170 0 0 -85 0 -85 -85 0
-85 0 0 -85 0 -85 85 0 85 0 0 85 0 85 85 0 85 0 0 -85 0 -85 255 0 255 0 0
-170 0 -170 85 0 85 0 0 -85 0 -85 -85 0 -85 0 0 -425 0 -425 170 0 170 0 0
170 0 170 85 0 85 0 0 -85 0 -85 170 0 170 0 0 170 0 170 -85 0 -85 0 0 -85 0
-85 -85 0 -85 0 0 170 0 170 -85 0 -85 0 0 170 0 170 -85 0 -85 0 0 170 0 170
85 0 85 0 0 -85 0 -85 85 0 85 0 0 85 0 85 170 0 170 0 0 170 0 170 -85 0 -85
0 0 -85 0 -85 -85 0 -85 0 0 255 0 255 255 0 255 0 0 85 0 85 85 0 85 0 0 -85
0 -85 340 0 340 0 0 -85 0 -85 -85 0 -85 0 0 -85 0 -85 85 0 85 0 0 -85 0 -85
-255 0 -255 0 0 85 0 85 85 0 85 0 0 85 0 85 -170 0 -170 0 0 -170 0 -170 -85
0 -85 0 0 -170 0 -170 85 0 85 0 0 -170 0 -170 -85 0 -85 0 0 -85 0 -85 85 0
85 0 0 85 0 85 85 0 85 0 0 -85 0 -85 255 0 255 0 0 -85 0 -85 85 0 85 0 0
-85 0 -85 -85 0 -85 0 0 -85 0 -85 -170 0 -170 0 0 85 0 85 85 0 85 0 0 85 0
85 -255 0 -255 0 0 -85 0 -85 -85 0 -85 0 0 -170 0 -170 425 0 425 0 0 85 0
85 85 0 85 0 0 -85 0 -85 85 0 85 0 0 85 0 85 85 0 85 0 0 170 0 170 85 0 85
0 0 85 0 85 -170 0 -170 0 0 85 0 85 85 0 85 0 0 85 0 85 -85 0 -85 0 0 -85 0
-85 -85 0 -85 0 0 -85 0 -85 -85 0 -85 0 0 170 0 170 -85 0 -85 0 0 -85 0 -85
-170 0 -170 0 0 85 0 85 85 0 85 0 0 85 0 85 -170 0 -170 0 0 85 0 85 340 0
340 0 0 -85 0 -85 85 0 85 0 0 85 0 85 85 0 85 0 0 -85 0 -85 170 0 170 0 0
-170 0 -170 85 0 85 0 0 -85 0 -85 85 0 85 0 0 -85 0 -85 -85 0 -85 0 0 -85 0
-85 85 0 85 0 0 -85 0 -85 -170 0 -170 0 0 -85 0 -85 170 0 170 0 0 85 0 85
85 0 85 0 0 85 0 85 170 0 170 0 0 85 0 85 85 0 85 0 0 -85 0 -85 85 0 85 0 0
-85 0 -85 -255 0 -255 0 0 -85 0 -85 255 0 255 0 0 85 0 85 85 0 85 0 0 -85 0
-85 85 0 85 0 0 85 0 85 -85 0 -85 0 0 85 0 85 85 0 85 0 0 85 0 85 -85 0 -85
0 0 85 0 85 85 0 85 0 0 85 0 85 85 0 85 0 0 85 0 85 -170 0 -170 0 0 85 0 85
170 0 170 0 0 85 0 85 -255 0 -255 0 0 85 0 85 85 0 85 0 0 170 0 170 170 0
170 0 0 85 0 85 -255 0 -255 0 0 85 0 85 85 0 85 0 0 170 0 170 170 0 170 0 0
85 0 85 -255 0 -255 0 0 85 0 85 85 0 85 0 0 170 0 170 170 0 170 0 0 85 0 85
-255 0 -255 0 0 85 0 85 255 0 255 0 0 85 0 85 -170 0 -170 0 0 85 0 85 170 0
170 0 0 85 0 85 -85 0 -85 0 0 85 0 85 -85 0 -85 0 0 -85 0 -85 -85 0 -85 0 0
85 0 85 -85 0 -85 0 0 -85 0 -85 85 0 85 0 0 -85 0 -85 -85 0 -85 0 0 -85 0
-85 85 0 85 0 0 -85 0 -85 -170 0 -170 0 0 -85 0 -85 -170 0 -170 0 0 85 0 85
85 0 85 0 0 85 0 85 -170 0 -170 0 0 85 0 85 -85 0 -85 0 0 85 0 85 170 0 170
0 0 -85 0 -85 85 0 85 0 0 85 0 85 85 0 85 0 0 85 0 85 -85 0 -85 0 0 -85 0
-85 -85 0 -85 0 0 85 0 85 -170 0 -170 0 0 85 0 85 85 0 85 0 0 85 0 85 -85 0
-85 0 0 -85 0 -85 -85 0 -85 0 0 170 0 170 85 0 85 0 0 85 0 85 85 0 85 0 0
170 0 170 -340 0 -340 0 0 85 0 85 -85 0 -85 0 0 85 0 85 -85 0 -85 0 0 -85 0
-85 85 0 85 0 0 -85 0 -85 -85 0 -85 0 0 -85 0 -85 -170 0 -170 0 0 -85 0 -85
-170 0 -170 0 0 85 0 85 85 0 85 0 0 170 0 170 85 0 85 0 0 -85 0 -85 85 0 85
0 0 85 0 85 -85 0 -85 0 0 85 0 85 -170 0 -170 0 0 -170z m850 -425 l0 -85 85
0 85 0 0 85 0 85 85 0 85 0 0 -85 0 -85 85 0 85 0 0 85 0 85 85 0 85 0 0 -85
0 -85 -85 0 -85 0 0 -85 0 -85 -85 0 -85 0 0 85 0 85 -85 0 -85 0 0 -85 0 -85
-85 0 -85 0 0 -170 0 -170 85 0 85 0 0 85 0 85 85 0 85 0 0 -85 0 -85 -85 0
-85 0 0 -85 0 -85 85 0 85 0 0 -85 0 -85 -85 0 -85 0 0 -255 0 -255 85 0 85 0
0 85 0 85 85 0 85 0 0 85 0 85 85 0 85 0 0 -85 0 -85 -85 0 -85 0 0 -85 0 -85
170 0 170 0 0 -85 0 -85 85 0 85 0 0 -85 0 -85 -170 0 -170 0 0 -85 0 -85 85
0 85 0 0 -85 0 -85 -85 0 -85 0 0 85 0 85 -85 0 -85 0 0 -170 0 -170 -170 0
-170 0 0 -85 0 -85 -85 0 -85 0 0 -85 0 -85 85 0 85 0 0 -85 0 -85 170 0 170
0 0 85 0 85 -85 0 -85 0 0 85 0 85 170 0 170 0 0 -85 0 -85 85 0 85 0 0 -85 0
-85 85 0 85 0 0 85 0 85 85 0 85 0 0 -85 0 -85 85 0 85 0 0 255 0 255 -170 0
-170 0 0 -85 0 -85 -85 0 -85 0 0 85 0 85 85 0 85 0 0 85 0 85 170 0 170 0 0
85 0 85 -85 0 -85 0 0 85 0 85 85 0 85 0 0 85 0 85 170 0 170 0 0 -255 0 -255
-170 0 -170 0 0 -85 0 -85 170 0 170 0 0 -85 0 -85 -85 0 -85 0 0 -85 0 -85
85 0 85 0 0 -85 0 -85 -170 0 -170 0 0 -85 0 -85 85 0 85 0 0 -85 0 -85 85 0
85 0 0 -170 0 -170 -170 0 -170 0 0 255 0 255 -170 0 -170 0 0 -85 0 -85 -170
0 -170 0 0 -85 0 -85 -85 0 -85 0 0 -85 0 -85 85 0 85 0 0 -170 0 -170 -85 0
-85 0 0 85 0 85 -170 0 -170 0 0 85 0 85 -85 0 -85 0 0 -85 0 -85 -85 0 -85 0
0 85 0 85 85 0 85 0 0 85 0 85 -85 0 -85 0 0 85 0 85 85 0 85 0 0 85 0 85 -85
0 -85 0 0 255 0 255 -170 0 -170 0 0 -85 0 -85 85 0 85 0 0 -85 0 -85 -85 0
-85 0 0 85 0 85 -85 0 -85 0 0 -85 0 -85 -85 0 -85 0 0 85 0 85 -85 0 -85 0 0
-85 0 -85 -170 0 -170 0 0 85 0 85 -85 0 -85 0 0 85 0 85 -85 0 -85 0 0 -85 0
-85 -85 0 -85 0 0 -85 0 -85 170 0 170 0 0 -85 0 -85 -85 0 -85 0 0 -85 0 -85
-170 0 -170 0 0 255 0 255 85 0 85 0 0 85 0 85 -85 0 -85 0 0 85 0 85 -85 0
-85 0 0 -85 0 -85 -85 0 -85 0 0 85 0 85 -85 0 -85 0 0 85 0 85 85 0 85 0 0
85 0 85 -170 0 -170 0 0 85 0 85 170 0 170 0 0 85 0 85 85 0 85 0 0 -85 0 -85
-85 0 -85 0 0 -85 0 -85 170 0 170 0 0 -170 0 -170 85 0 85 0 0 -85 0 -85 85
0 85 0 0 85 0 85 170 0 170 0 0 -170 0 -170 85 0 85 0 0 255 0 255 -85 0 -85
0 0 85 0 85 170 0 170 0 0 85 0 85 -255 0 -255 0 0 -85 0 -85 -85 0 -85 0 0
-85 0 -85 -85 0 -85 0 0 255 0 255 -85 0 -85 0 0 170 0 170 -85 0 -85 0 0 -85
0 -85 -85 0 -85 0 0 85 0 85 -85 0 -85 0 0 -85 0 -85 -85 0 -85 0 0 170 0 170
-85 0 -85 0 0 85 0 85 170 0 170 0 0 -85 0 -85 85 0 85 0 0 85 0 85 85 0 85 0
0 -85 0 -85 85 0 85 0 0 -85 0 -85 85 0 85 0 0 170 0 170 85 0 85 0 0 85 0 85
85 0 85 0 0 -85 0 -85 85 0 85 0 0 170 0 170 -85 0 -85 0 0 85 0 85 85 0 85 0
0 -85 0 -85 85 0 85 0 0 85 0 85 85 0 85 0 0 -85 0 -85 85 0 85 0 0 85 0 85
85 0 85 0 0 -85 0 -85 85 0 85 0 0 85 0 85 85 0 85 0 0 85 0 85 -85 0 -85 0 0
85 0 85 170 0 170 0 0 85 0 85 85 0 85 0 0 -85z m-850 -170 l0 -85 -85 0 -85
0 0 85 0 85 85 0 85 0 0 -85z m-850 -340 l0 -85 -85 0 -85 0 0 85 0 85 85 0
85 0 0 -85z m-1190 -1530 l0 -85 -85 0 -85 0 0 85 0 85 85 0 85 0 0 -85z m0
-510 l0 -85 85 0 85 0 0 85 0 85 85 0 85 0 0 -85 0 -85 170 0 170 0 0 -85 0
-85 -85 0 -85 0 0 -85 0 -85 85 0 85 0 0 -85 0 -85 -85 0 -85 0 0 -85 0 -85
170 0 170 0 0 -85 0 -85 85 0 85 0 0 85 0 85 85 0 85 0 0 -85 0 -85 85 0 85 0
0 -85 0 -85 -85 0 -85 0 0 85 0 85 -85 0 -85 0 0 -85 0 -85 -85 0 -85 0 0 85
0 85 -170 0 -170 0 0 85 0 85 -170 0 -170 0 0 85 0 85 -85 0 -85 0 0 170 0
170 -85 0 -85 0 0 170 0 170 85 0 85 0 0 -85z m3910 -850 l0 -85 -85 0 -85 0
0 85 0 85 85 0 85 0 0 -85z m340 -510 l0 -255 -255 0 -255 0 0 255 0 255 255
0 255 0 0 -255z m340 -85 l0 -170 85 0 85 0 0 -85 0 -85 -85 0 -85 0 0 -85 0
-85 -85 0 -85 0 0 85 0 85 85 0 85 0 0 85 0 85 -85 0 -85 0 0 170 0 170 85 0
85 0 0 -170z m-3400 -425 l0 -85 -85 0 -85 0 0 85 0 85 85 0 85 0 0 -85z
m1870 0 l0 -85 -85 0 -85 0 0 85 0 85 85 0 85 0 0 -85z m1190 0 l0 -85 -170 0
-170 0 0 -85 0 -85 -85 0 -85 0 0 85 0 85 85 0 85 0 0 85 0 85 170 0 170 0 0
-85z m-1190 -340 l0 -85 -85 0 -85 0 0 85 0 85 85 0 85 0 0 -85z"/>
<path d="M5220 9055 l0 -85 85 0 85 0 0 85 0 85 -85 0 -85 0 0 -85z"/>
<path d="M5050 8715 l0 -85 85 0 85 0 0 85 0 85 -85 0 -85 0 0 -85z"/>
<path d="M4540 8545 l0 -85 -85 0 -85 0 0 -85 0 -85 85 0 85 0 0 -170 0 -170
-85 0 -85 0 0 -255 0 -255 85 0 85 0 0 -85 0 -85 170 0 170 0 0 170 0 170 170
0 170 0 0 -85 0 -85 -85 0 -85 0 0 -85 0 -85 85 0 85 0 0 85 0 85 85 0 85 0 0
-85 0 -85 85 0 85 0 0 -85 0 -85 -85 0 -85 0 0 -85 0 -85 -85 0 -85 0 0 85 0
85 -425 0 -425 0 0 -85 0 -85 85 0 85 0 0 -170 0 -170 85 0 85 0 0 85 0 85 85
0 85 0 0 85 0 85 170 0 170 0 0 -85 0 -85 85 0 85 0 0 85 0 85 85 0 85 0 0 85
0 85 85 0 85 0 0 170 0 170 170 0 170 0 0 85 0 85 -255 0 -255 0 0 85 0 85
-85 0 -85 0 0 -85 0 -85 -85 0 -85 0 0 255 0 255 85 0 85 0 0 85 0 85 85 0 85
0 0 85 0 85 -85 0 -85 0 0 -85 0 -85 -85 0 -85 0 0 85 0 85 -170 0 -170 0 0
-85 0 -85 -85 0 -85 0 0 170 0 170 -85 0 -85 0 0 -85z m680 -340 l0 -85 -170
0 -170 0 0 -85 0 -85 85 0 85 0 0 -85 0 -85 -85 0 -85 0 0 -85 0 -85 -170 0
-170 0 0 85 0 85 85 0 85 0 0 170 0 170 85 0 85 0 0 85 0 85 170 0 170 0 0
-85z m340 -680 l0 -85 -85 0 -85 0 0 85 0 85 85 0 85 0 0 -85z"/>
<path d="M3690 8120 l0 -170 85 0 85 0 0 170 0 170 -85 0 -85 0 0 -170z"/>
<path d="M4030 8205 l0 -85 85 0 85 0 0 85 0 85 -85 0 -85 0 0 -85z"/>
<path d="M3010 8035 l0 -85 85 0 85 0 0 85 0 85 -85 0 -85 0 0 -85z"/>
<path d="M4030 7780 l0 -170 85 0 85 0 0 170 0 170 -85 0 -85 0 0 -170z"/>
<path d="M3520 7695 l0 -85 170 0 170 0 0 85 0 85 -170 0 -170 0 0 -85z"/>
<path d="M3010 7015 l0 -85 85 0 85 0 0 85 0 85 -85 0 -85 0 0 -85z"/>
<path d="M5390 6335 l0 -85 85 0 85 0 0 -255 0 -255 85 0 85 0 0 170 0 170
170 0 170 0 0 85 0 85 85 0 85 0 0 85 0 85 -170 0 -170 0 0 -85 0 -85 -170 0
-170 0 0 85 0 85 -85 0 -85 0 0 -85z"/>
<path d="M2670 6505 l0 -85 85 0 85 0 0 85 0 85 -85 0 -85 0 0 -85z"/>
<path d="M6410 5315 l0 -85 85 0 85 0 0 85 0 85 -85 0 -85 0 0 -85z"/>
<path d="M5900 9735 l0 -85 85 0 85 0 0 85 0 85 -85 0 -85 0 0 -85z"/>
<path d="M6410 9225 l0 -595 595 0 595 0 0 595 0 595 -595 0 -595 0 0 -595z
m1020 0 l0 -425 -425 0 -425 0 0 425 0 425 425 0 425 0 0 -425z"/>
<path d="M6750 9225 l0 -255 255 0 255 0 0 255 0 255 -255 0 -255 0 0 -255z"/>
<path d="M3350 9565 l0 -85 85 0 85 0 0 85 0 85 -85 0 -85 0 0 -85z"/>
<path d="M1990 4805 l0 -595 595 0 595 0 0 595 0 595 -595 0 -595 0 0 -595z
m1020 0 l0 -425 -425 0 -425 0 0 425 0 425 425 0 425 0 0 -425z"/>
<path d="M2330 4805 l0 -255 255 0 255 0 0 255 0 255 -255 0 -255 0 0 -255z"/>
<path d="M4030 5315 l0 -85 -85 0 -85 0 0 -85 0 -85 85 0 85 0 0 85 0 85 85 0
85 0 0 85 0 85 -85 0 -85 0 0 -85z"/>
</g>
</svg>
